# xmcd
#
# Track frame offsets:
#	151
#	11664
#	36904
#	59566
#	76667
#	109556
#	135356
#	161461
#	183794
#	214089
#	271731
#	290362
#
# Disc length: 4565 seconds
#
# Revision: 0
# Processed by: cddbd v1.5.1PL2 Copyright (c) Steve Scherf et al.
# Submitted via: EasyCDDAExtractor 8.0.2.1
#
DISCID=9611d30c
DTITLE=Stevie Ray Vaughan and Double Trouble - Hello y'a all
DYEAR=1989
DGENRE=Blues
TTITLE0=House is a rockin
TTITLE1=Tightrope
TTITLE2=Little sister
TTITLE3=Let me love you
TTITLE4=Texas flood
TTITLE5=Leave my little girl
TTITLE6=Wall of denial
TTITLE7=Superstition
TTITLE8=Cold shot
TTITLE9=Life without you
TTITLE10=Crossfire
TTITLE11=Voodoo chile
EXTD=
EXTT0=
EXTT1=
EXTT2=
EXTT3=
EXTT4=
EXTT5=
EXTT6=
EXTT7=
EXTT8=
EXTT9=
EXTT10=
EXTT11=
PLAYORDER=
